<?xml version="1.0" standalone="no"?>
<!DOCTYPE svg PUBLIC "-//W3C//DTD SVG 20010904//EN"
 "http://www.w3.org/TR/2001/REC-SVG-20010904/DTD/svg10.dtd">
<svg version="1.0" xmlns="http://www.w3.org/2000/svg"
 width="483.000000pt" height="282.000000pt" viewBox="0 0 483.000000 282.000000"
 preserveAspectRatio="xMidYMid meet">

<g transform="translate(0.000000,282.000000) scale(0.100000,-0.100000)"
fill="#000000" stroke="none">
<path d="M500 2495 c-7 -9 -11 -17 -9 -20 3 -2 10 5 17 15 14 24 10 26 -8 5z"/>
<path d="M449 2443 l-24 -28 28 24 c25 23 32 31 24 31 -2 0 -14 -12 -28 -27z"/>
<path d="M618 2263 c-2 -5 -2 -162 0 -350 l3 -342 50 -10 c28 -6 74 -11 104
-11 108 0 293 75 379 154 27 25 53 43 59 39 6 -3 7 -1 3 5 -12 19 410 433 514
504 24 16 -5 17 -542 17 -312 1 -568 -2 -570 -6z"/>
<path d="M2350 2236 c0 -18 3 -48 6 -66 l7 -32 54 5 c30 3 56 7 58 9 2 1 6 29
10 61 l7 57 -71 0 -71 0 0 -34z"/>
<path d="M3106 2262 c5 -5 38 -31 74 -59 36 -28 152 -141 258 -251 106 -111
226 -227 266 -260 117 -94 232 -142 345 -142 44 0 52 3 47 16 -3 9 -6 171 -6
360 l0 344 -497 0 c-273 0 -493 -4 -487 -8z"/>
<path d="M2892 1709 c-62 -12 -129 -48 -164 -88 -44 -49 -36 -81 75 -326 124
-275 147 -354 113 -400 -12 -17 -15 -15 -39 26 -15 25 -53 106 -86 180 -105
241 -166 346 -233 405 -33 29 -37 30 -130 28 -75 -1 -101 -5 -119 -19 -50 -38
-102 -116 -186 -280 -114 -221 -189 -307 -176 -202 10 82 34 145 83 213 88
125 110 167 116 230 7 72 -13 115 -73 157 -44 32 -165 67 -227 67 -47 0 -143
-41 -152 -65 -4 -9 -13 -14 -20 -11 -8 3 -13 2 -12 -2 5 -17 -23 -51 -37 -46
-14 6 -20 -6 -16 -29 3 -17 -99 -104 -160 -136 -384 -207 -544 -267 -729 -273
l-95 -4 -6 -424 c-4 -303 -3 -428 5 -435 7 -7 244 -9 736 -5 l725 5 3 22 c4
25 0 24 145 58 118 27 231 32 351 15 86 -13 115 -27 141 -67 l20 -32 673 -1
672 0 0 433 0 432 -112 23 c-136 28 -205 56 -457 185 -170 87 -285 137 -313
137 -4 0 -8 -19 -8 -42 0 -23 -5 -56 -11 -73 l-12 -32 -49 34 c-28 18 -58 33
-67 33 -10 0 -44 -11 -77 -24 -32 -13 -74 -27 -91 -31 -31 -6 -33 -5 -33 19 0
36 29 61 91 80 43 12 61 24 89 60 33 42 37 45 74 39 37 -6 38 -5 31 18 -13 43
-33 73 -67 106 -54 52 -93 61 -186 42z m-1104 -228 c43 -21 110 -50 150 -65
39 -15 72 -32 72 -37 0 -5 -12 -16 -26 -25 -24 -17 -29 -16 -96 5 -61 20 -83
22 -154 16 l-84 -7 0 50 c0 35 5 54 19 66 10 10 21 13 22 8 2 -5 13 -6 24 -2
19 8 19 8 -5 18 -14 6 -19 11 -12 11 8 1 48 -16 90 -38z m-109 -302 c1 -53 -1
-58 -38 -91 -42 -37 -78 -100 -106 -186 -19 -60 -31 -68 -184 -116 -113 -36
-154 -58 -249 -138 -46 -39 -86 -68 -89 -65 -3 3 30 41 74 85 62 62 98 88 173
127 128 65 202 118 227 163 12 20 40 86 64 145 25 64 57 124 78 149 l36 42 6
-30 c4 -16 7 -54 8 -85z m1596 -72 c84 -228 90 -235 280 -337 142 -77 211
-130 240 -190 17 -33 15 -32 -51 26 -38 33 -82 70 -99 81 -46 32 -323 125
-386 130 l-56 5 5 46 c2 26 -5 103 -17 171 -12 68 -21 147 -21 175 l1 51 39
-43 c23 -26 49 -71 65 -115z m-900 -123 c65 -13 87 -14 141 -4 50 10 75 10
111 1 57 -15 126 -55 153 -88 18 -23 18 -27 4 -54 -8 -16 -19 -29 -24 -29 -5
0 -34 -9 -64 -21 -49 -18 -57 -25 -67 -59 -10 -32 -9 -44 7 -77 22 -45 54 -53
107 -28 44 21 68 64 74 136 3 33 9 57 12 53 3 -3 9 -67 12 -142 4 -83 13 -159
23 -194 18 -59 18 -138 1 -139 -5 0 -14 13 -18 29 l-9 29 -196 16 c-235 20
-579 17 -610 -5 -11 -7 -27 -33 -35 -58 -15 -41 -16 -42 -16 -15 -1 17 8 45
19 63 26 42 25 98 -1 170 -32 86 -33 96 -11 115 19 17 20 17 44 -11 31 -37 59
-52 97 -52 62 0 101 37 101 95 0 33 -17 46 -96 80 -83 34 -94 42 -94 65 0 23
67 88 122 118 50 27 105 28 213 6z"/>
<path d="M1610 1606 c0 -2 8 -10 18 -17 15 -13 16 -12 3 4 -13 16 -21 21 -21
13z"/>
</g>
</svg>
