<?xml version="1.0" encoding="UTF-8"?>
<svg version="1.1" xmlns="http://www.w3.org/2000/svg" width="394" height="391">
<path d="M0 0 C130.02 0 260.04 0 394 0 C394 129.03 394 258.06 394 391 C263.98 391 133.96 391 0 391 C0 261.97 0 132.94 0 0 Z " fill="#FEFEFE" transform="translate(0,0)"/>
<path d="M0 0 C1.98 2.97 1.98 2.97 4 6 C-8.87 18.87 -21.74 31.74 -35 45 C-16.96203921 45.24877165 -16.96203921 45.24877165 1.07617188 45.47802734 C34.01191618 45.94636965 34.01191618 45.94636965 47.0625 50.625 C47.80508057 50.88369873 48.54766113 51.14239746 49.31274414 51.40893555 C75.75778924 60.99120949 93.88885696 79.82499628 106.03613281 104.78173828 C106.35420898 105.51376465 106.67228516 106.24579102 107 107 C107.78250122 108.72259033 107.78250122 108.72259033 108.58081055 110.47998047 C110.60302167 115.97084814 110.48651138 121.45821564 110.50390625 127.25 C110.51389145 128.42151611 110.52387665 129.59303223 110.53416443 130.80004883 C110.54930722 133.27437834 110.55639142 135.74876873 110.5559082 138.22314453 C110.56243197 141.96102284 110.61685699 145.69618894 110.67382812 149.43359375 C110.85720715 175.28442347 102.6962147 193.89072702 84.4765625 212.58984375 C72.90750676 223.59910647 55.47347893 236.129846 38.85194111 236.12304783 C37.78004892 236.12503888 36.70815673 236.12702993 35.60378295 236.12908131 C34.4218913 236.12616847 33.23999964 236.12325563 32.02229309 236.12025452 C30.14409765 236.12153615 30.14409765 236.12153615 28.22795886 236.12284368 C24.74584382 236.12508519 21.26375941 236.12107204 17.78164828 236.11606562 C14.02910971 236.11175639 10.27657294 236.11320788 6.52403259 236.1139679 C0.02030336 236.11449283 -6.48341585 236.11134921 -12.98714256 236.10573006 C-22.39049664 236.09761094 -31.79384587 236.09499941 -41.19720308 236.09374207 C-56.45267915 236.0915522 -71.70814988 236.08489387 -86.96362305 236.07543945 C-101.78491184 236.06626366 -116.60619918 236.05918364 -131.42749023 236.05493164 C-132.34072271 236.05466892 -133.25395519 236.05440619 -134.19486137 236.05413551 C-138.77617527 236.05283049 -143.35748917 236.05156678 -147.93880308 236.05032361 C-185.95920579 236.03995302 -223.97960254 236.02233646 -262 236 C-262 234.68 -262 233.36 -262 232 C-261.39667626 231.99902319 -260.79335253 231.99804638 -260.17174625 231.99703997 C-224.36396822 231.9386884 -188.55625453 231.86483169 -152.74855143 231.77101372 C-148.44304499 231.7597464 -144.13753823 231.74860781 -139.83203125 231.73754883 C-138.97493116 231.73534514 -138.11783108 231.73314146 -137.23475826 231.730871 C-123.38134398 231.69555912 -109.52792975 231.67066057 -95.67448723 231.64965298 C-81.44525798 231.62784214 -67.21608681 231.59474186 -52.98690701 231.55129844 C-44.21631868 231.52487246 -35.44580263 231.50711054 -26.6751765 231.50065396 C-20.64977857 231.49537223 -14.62447137 231.47906267 -8.59912217 231.45433434 C-5.12983939 231.44041401 -1.66071865 231.43111262 1.80859375 231.43499184 C27.34747415 231.48367062 27.34747415 231.48367062 51.6875 224.375 C52.48293213 224.02727539 53.27836426 223.67955078 54.09790039 223.32128906 C76.23622256 213.29723205 91.64526976 195.46581967 100.55859375 173.12109375 C108.50572049 151.51372208 106.77142992 126.37244123 97.65625 105.49609375 C87.50127459 84.06047348 70.23715687 69.03063081 48.5 60.1875 C36.63698786 56.00511537 25.3907902 54.55834304 12.8515625 54.70703125 C11.45910099 54.71264675 10.06663344 54.71690756 8.67416382 54.71989441 C5.06069727 54.73118991 1.44760943 54.76051895 -2.16571045 54.79400635 C-5.87344146 54.82504324 -9.58123725 54.83863657 -13.2890625 54.85351562 C-20.52637292 54.88380571 -27.76265202 54.94256073 -35 55 C-22.13 67.87 -9.26 80.74 4 94 C2.68 95.65 1.36 97.3 0 99 C-3.56689757 97.48496802 -5.83755627 95.39944022 -8.55322266 92.65795898 C-9.44739899 91.7604039 -10.34157532 90.86284882 -11.2628479 89.93809509 C-12.22995126 88.95745936 -13.19702201 87.97679148 -14.1640625 86.99609375 C-15.16195436 85.99192861 -16.16036503 84.98827879 -17.15927124 83.98512268 C-19.78325168 81.34786017 -22.40160094 78.70508329 -25.01837158 76.06066895 C-29.21258277 71.8232776 -33.413583 67.59264289 -37.6178093 63.36519051 C-39.08595836 61.88680667 -40.55065478 60.40506421 -42.01504517 58.92295837 C-42.90291718 58.02855545 -43.79078918 57.13415253 -44.70556641 56.21264648 C-45.48848053 55.42147934 -46.27139465 54.63031219 -47.07803345 53.81517029 C-48.87685361 51.94115685 -48.87685361 51.94115685 -51 51 C-49.461683 47.35424362 -47.27240769 45.01898804 -44.49023438 42.23144531 C-44.03473709 41.77244339 -43.57923981 41.31344147 -43.10993958 40.8405304 C-41.6095207 39.33133945 -40.10194115 37.82954588 -38.59375 36.328125 C-37.54735523 35.28038275 -36.50125749 34.23234378 -35.45544434 33.184021 C-33.26633957 30.9919715 -31.07366731 28.8035712 -28.87841797 26.61767578 C-26.06026231 23.81094246 -23.25121745 20.99528862 -20.44475555 18.17686844 C-18.28828892 16.0131897 -16.12709999 13.85427872 -13.96443176 11.69680023 C-12.92630545 10.66001075 -11.88967012 9.62172619 -10.85453796 8.58194733 C-9.41110988 7.13346181 -7.96061089 5.69203276 -6.50976562 4.25097656 C-5.68528931 3.42809143 -4.86081299 2.6052063 -4.01135254 1.75738525 C-2 0 -2 0 0 0 Z " fill="#C99759" transform="translate(272,145)"/>
<path d="M0 0 C1.25877712 -0.00170885 2.51755425 -0.0034177 3.81447613 -0.00517833 C7.30124946 -0.00964414 10.78789961 -0.00165876 14.27465725 0.00837779 C18.03736804 0.01702105 21.80007199 0.01409151 25.56278992 0.01257324 C32.07957477 0.01152495 38.59631955 0.01779577 45.11309433 0.02904892 C54.53523122 0.04530844 63.95734874 0.05051239 73.37949814 0.0530249 C88.66659413 0.05740129 103.95366877 0.07070889 119.24075317 0.08963013 C134.09003594 0.10799037 148.93931291 0.12214617 163.78860474 0.13064575 C164.70403604 0.1311712 165.61946734 0.13169665 166.56263898 0.13223802 C171.15512502 0.13484811 175.74761109 0.13737552 180.34009719 0.13986182 C218.43460163 0.16059258 256.52908224 0.1958166 294.62356567 0.24050903 C294.62356567 1.56050903 294.62356567 2.88050903 294.62356567 4.24050903 C294.01427375 4.24110612 293.40498182 4.24170321 292.77722651 4.24231839 C256.61030797 4.27826612 220.44347687 4.33498742 184.27663562 4.41842999 C179.92735418 4.42844662 175.57807236 4.43829089 171.22879028 4.44802856 C169.93007585 4.45094062 169.93007585 4.45094062 168.60512476 4.45391151 C154.61335014 4.48487438 140.62159189 4.50189617 126.62978948 4.51370326 C112.25703317 4.52614449 97.88436235 4.55371268 83.51166004 4.5951221 C74.6535288 4.62017269 65.79553948 4.63363251 56.93737232 4.63193861 C50.85074152 4.63190869 44.76425453 4.64666323 38.67767984 4.67267331 C35.17379774 4.68722158 31.67021048 4.69560743 28.16630363 4.68631172 C-0.51297445 4.63602136 -25.97831643 9.64422055 -47.18893433 30.42800903 C-64.02641633 47.58637342 -72.63557631 70.06699894 -72.62521362 93.92605591 C-72.36873989 115.37390243 -65.07287588 134.7353502 -51.37643433 151.24050903 C-50.72287964 152.11255981 -50.72287964 152.11255981 -50.05612183 153.00222778 C-37.90609348 168.60810252 -16.53770584 178.4792972 2.62356567 181.24050903 C4.74646649 181.32352191 6.87160545 181.35837018 8.99612427 181.35403442 C10.85737442 181.35392113 10.85737442 181.35392113 12.75622559 181.35380554 C14.09481853 181.34870016 15.43341106 181.34348419 16.77200317 181.33816528 C18.15348255 181.3362981 19.53496259 181.33487561 20.91644287 181.33387756 C24.53644671 181.33007605 28.15640985 181.32026619 31.77639771 181.30917358 C35.47675008 181.29890838 39.17710928 181.29431408 42.87747192 181.28933716 C50.12620568 181.27917348 57.37482795 181.25959582 64.62356567 181.24050903 C51.75356567 168.37050903 38.88356567 155.50050903 25.62356567 142.24050903 C27.87356567 137.74050903 27.87356567 137.74050903 31.62356567 136.24050903 C32.0168959 136.7048938 32.41022614 137.16927856 32.81547546 137.6477356 C37.7211596 143.35504401 42.9400915 148.68668809 48.27590942 153.99050903 C49.62610924 155.33858643 49.62610924 155.33858643 51.00358582 156.71389771 C53.37067831 159.07637478 55.73991207 161.43666015 58.11026001 163.79586792 C60.53907309 166.21436085 62.9649767 168.6357685 65.3911438 171.05691528 C70.13263937 175.78743857 74.87698466 180.51508876 79.62356567 185.24050903 C78.09458992 188.85743676 75.94540934 191.16086123 73.17385864 193.91726685 C72.25305511 194.83791931 71.33225159 195.75857178 70.38354492 196.7071228 C69.37772102 197.70273434 68.37178788 198.69823551 67.36575317 199.69363403 C66.33684418 200.71881096 65.3083773 201.74443178 64.28033447 202.77047729 C61.57874986 205.46444068 58.87121227 208.15234271 56.16238403 210.83901978 C53.39712079 213.58379208 50.63753935 216.33426376 47.87747192 219.08425903 C42.46504293 224.47526476 37.04631129 229.85987868 31.62356567 235.24050903 C28.46240792 233.87067401 27.63085648 233.25144524 25.62356567 230.24050903 C38.49356567 217.37050903 51.36356567 204.50050903 64.62356567 191.24050903 C60.58493286 191.21472778 56.54630005 191.18894653 52.38528442 191.16238403 C49.10681637 191.13057203 45.82843873 191.09491452 42.5500412 191.05671692 C39.12148866 191.01779861 35.69317899 190.98520394 32.26443481 190.96951294 C-1.67410725 190.78300327 -28.60285663 185.06949935 -53.93893433 161.05300903 C-67.85142968 146.72338419 -77.79754873 128.02357585 -77.91549683 107.92800903 C-77.9278537 106.76027954 -77.94021057 105.59255005 -77.95294189 104.38943481 C-77.97243695 101.92529265 -77.98372761 99.46107342 -77.98727417 96.99685669 C-78.00129101 93.27852851 -78.06862284 89.56362631 -78.13815308 85.84597778 C-78.37133482 60.31166714 -69.65344364 42.45422759 -52.25143433 23.74050903 C-38.0185285 10.08591541 -19.82128745 -0.09810383 0 0 Z " fill="#C9985A" transform="translate(87.37643432617188,8.759490966796875)"/>
<path d="M0 0 C7.2063771 -0.35531175 13.3542782 0.48992031 20.25 2.5625 C21.61970947 2.96795044 21.61970947 2.96795044 23.01708984 3.3815918 C35.73031577 7.2927507 46.11485367 12.99633169 56 22 C57.05960937 22.92039063 57.05960937 22.92039063 58.140625 23.859375 C72.47393427 37.06407724 81.20965072 57.88030426 82.28125 77.12890625 C83.06591541 101.02850678 74.88562701 120.40378565 59.625 138.3125 C46.75362369 152.02572192 25.64377092 163.38086252 6.56131673 164.09071743 C3.48873701 164.12622808 0.41765811 164.12836837 -2.65512085 164.12025452 C-3.83631048 164.12110894 -5.01750011 164.12196337 -6.23448336 164.12284368 C-9.50459533 164.12420431 -12.77466751 164.12108544 -16.04477477 164.11606562 C-19.57435462 164.11174234 -23.10393265 164.11320888 -26.6335144 164.1139679 C-32.74594943 164.11449194 -38.85837378 164.11135761 -44.97080612 164.10573006 C-53.80832863 164.09759889 -62.64584597 164.09499818 -71.48337181 164.09374207 C-85.82208804 164.09155409 -100.16079858 164.0849009 -114.49951172 164.07543945 C-128.4272458 164.06625876 -142.35497834 164.05918114 -156.28271484 164.05493164 C-157.14139323 164.05466892 -158.00007161 164.05440619 -158.88477056 164.05413551 C-163.19255926 164.05283046 -167.50034798 164.05156675 -171.8081367 164.05032361 C-207.53876186 164.03995892 -243.2693804 164.02234751 -279 164 C-279 161.36 -279 158.72 -279 156 C-278.39591682 155.99902319 -277.79183365 155.99804638 -277.16944492 155.99703997 C-241.32839041 155.93870718 -205.48740029 155.86486456 -169.64642077 155.77101372 C-165.33833679 155.7597462 -161.03025249 155.74860765 -156.72216797 155.73754883 C-155.86454326 155.73534514 -155.00691855 155.73314146 -154.12330522 155.730871 C-140.25560676 155.69554486 -126.38790835 155.67065433 -112.52018164 155.64965298 C-98.27966189 155.62785355 -84.03920028 155.59476395 -69.79873002 155.55129844 C-61.01892302 155.52485293 -52.2391884 155.50710534 -43.45934357 155.50065396 C-37.43022228 155.49537827 -31.4011919 155.47908857 -25.37211941 155.45433434 C-21.89903379 155.44039364 -18.42611061 155.43112044 -14.9529953 155.43499184 C12.11842509 155.44689564 32.91063716 152.50985155 53.3125 133.125 C68.90123651 116.91271403 73.68230374 97.73694166 73.30859375 75.96875 C72.55950032 56.17527724 62.8590133 39.02586955 48.5625 25.6875 C44.02361225 21.83965398 39.26434986 18.76162616 34 16 C33.16597656 15.54625 32.33195312 15.0925 31.47265625 14.625 C21.61476699 9.87284678 10.75121109 9.15232548 0 8 C0 5.36 0 2.72 0 0 Z " fill="#CA995C" transform="translate(289,206)"/>
<path d="M0 0 C1.18460733 -0.00170885 2.36921466 -0.0034177 3.58971918 -0.00517833 C6.85083922 -0.0078876 10.1117974 -0.00169606 13.37289834 0.00837779 C16.89968095 0.01706003 20.42645677 0.01408877 23.95324707 0.01257324 C30.05471178 0.0115274 36.15613353 0.0177725 42.25758743 0.02904892 C51.07912775 0.04534182 59.90064742 0.0505158 68.72220115 0.0530249 C83.03652273 0.05739607 97.35082144 0.07068945 111.66513062 0.08963013 C125.56552008 0.10800391 139.46590332 0.12215308 153.36630249 0.13064575 C154.22392998 0.1311712 155.08155747 0.13169665 155.96517368 0.13223802 C160.26787981 0.1348482 164.570586 0.13737559 168.87329221 0.13986182 C204.53683146 0.16057631 240.20034416 0.19578606 275.86386108 0.24050903 C275.86386108 2.88050903 275.86386108 5.52050903 275.86386108 8.24050903 C275.25494888 8.2407264 274.64603667 8.24094377 274.01867259 8.24116772 C237.86838574 8.25470599 201.71821363 8.2942966 165.56799636 8.36736466 C161.22000371 8.37613061 156.87201067 8.38468056 152.52401733 8.39309692 C151.65847002 8.39477599 150.79292271 8.39645505 149.9011467 8.39818499 C135.91650427 8.42479942 121.93190284 8.43394608 107.94723769 8.43655046 C93.58011609 8.43961817 79.21311232 8.46165898 64.84604394 8.5010336 C55.99248784 8.52470822 47.13916751 8.53387266 38.2855842 8.52402214 C32.20079185 8.51867502 26.11620927 8.53188353 20.03147663 8.55917194 C16.52943352 8.57434562 13.02786035 8.58183015 9.52580452 8.56710625 C-16.40097827 8.48739916 -35.86914362 11.57981778 -55.13613892 30.24050903 C-55.74973267 30.76902466 -56.36332642 31.29754028 -56.99551392 31.84207153 C-65.5155738 39.46322601 -71.84916912 51.11919621 -74.13613892 62.24050903 C-74.33723267 63.02812622 -74.53832642 63.81574341 -74.74551392 64.62722778 C-79.46721359 85.46013244 -75.28758087 106.25415848 -64.13613892 124.24050903 C-53.85809721 139.62264197 -37.24355529 150.77853688 -19.17910767 154.75222778 C-13.85614985 155.60636094 -8.51786624 155.98878308 -3.13613892 156.24050903 C-3.13613892 158.88050903 -3.13613892 161.52050903 -3.13613892 164.24050903 C-24.81304491 165.38139882 -43.26979321 155.65674797 -59.38613892 141.92800903 C-74.17747035 128.07162399 -83.60124475 109.45202004 -84.47988892 89.15847778 C-85.06515541 64.13880569 -78.98437753 43.23812188 -61.51113892 24.58425903 C-44.61621868 7.91164038 -23.55688844 -0.12573468 0 0 Z " fill="#C9985A" transform="translate(106.13613891601563,19.759490966796875)"/>
<path d="M0 0 C3.51171477 0.01307808 7.02341536 0.00856268 10.53514767 0.00629318 C16.60437042 0.0047278 22.67349567 0.01405945 28.7426939 0.03100669 C37.51748413 0.05549278 46.2922277 0.06321174 55.06704839 0.06697067 C69.30706708 0.07352016 83.54703392 0.09344035 97.7870245 0.1218785 C111.61156615 0.1494581 125.43609367 0.17067254 139.26065731 0.18340194 C140.11424691 0.18419011 140.96783651 0.18497828 141.84729247 0.18579034 C146.12993195 0.18970574 150.41257153 0.19349679 154.69521117 0.19722605 C190.16725881 0.22827513 225.63924623 0.28106976 261.11124325 0.34819686 C261.11124325 2.98819686 261.11124325 5.62819686 261.11124325 8.34819686 C260.50005272 8.34879395 259.8888622 8.34939104 259.25915074 8.35000622 C223.00904111 8.38592534 186.75901889 8.44260295 150.50898655 8.52611782 C146.15326125 8.53613489 141.79753558 8.54597908 137.44180965 8.5557164 C136.57468848 8.55765777 135.70756731 8.55959914 134.81416973 8.56159934 C120.78668466 8.59259314 106.75921593 8.60959267 92.73170307 8.62139109 C78.33072055 8.63381624 63.92982362 8.6613484 49.52889514 8.70280993 C40.64771727 8.72790633 31.76668139 8.74131697 22.88546756 8.73962644 C16.78952836 8.73959661 10.69373346 8.7542836 4.59785053 8.78036115 C1.08446134 8.79496214 -2.42863195 8.80324904 -5.94204617 8.79399955 C-9.76108382 8.7873465 -13.57926565 8.80531395 -17.3982172 8.82921493 C-19.04418499 8.8175743 -19.04418499 8.8175743 -20.72340465 8.80569851 C-37.07503914 8.98610897 -49.48333139 16.15759972 -60.88875675 27.34819686 C-61.45594425 27.89089218 -62.02313175 28.43358749 -62.60750675 28.99272811 C-70.72812394 37.52369564 -75.73189964 50.1881497 -76.51375675 61.78569686 C-76.58852238 62.8362828 -76.663288 63.88686874 -76.74031925 64.96929061 C-76.78930363 65.75432968 -76.838288 66.53936874 -76.88875675 67.34819686 C-79.52875675 67.34819686 -82.16875675 67.34819686 -84.88875675 67.34819686 C-85.76985434 49.72624501 -78.1727545 34.43629025 -67.09969425 21.21147811 C-48.34933737 1.43918235 -25.55682963 -0.11958159 0 0 Z " fill="#CA995B" transform="translate(120.88875675201416,34.65180313587189)"/>
<path d="M0 0 C2.64 0 5.28 0 8 0 C7.94558856 18.93517982 1.36951698 33.69245105 -11.375 47.58984375 C-22.73822439 58.52320932 -39.08941662 67.13001765 -55.11304188 67.12304783 C-56.63280163 67.1260344 -56.63280163 67.1260344 -58.1832636 67.12908131 C-59.2892925 67.12616847 -60.3953214 67.12325563 -61.53486633 67.12025452 C-63.30536914 67.12153615 -63.30536914 67.12153615 -65.11163968 67.12284368 C-68.38401094 67.12420582 -71.65634257 67.12108121 -74.92870915 67.11606562 C-78.45898825 67.11174678 -81.98926551 67.11320857 -85.51954651 67.1139679 C-91.63472748 67.11449222 -97.74989778 67.11135496 -103.86507607 67.10573006 C-112.70659457 67.09760269 -121.54810791 67.09499857 -130.38962974 67.09374207 C-144.73444684 67.0915535 -159.07925825 67.08489868 -173.42407227 67.07543945 C-187.35864229 67.0662603 -201.29321077 67.05918193 -215.2277832 67.05493164 C-216.08672431 67.05466892 -216.94566542 67.05440619 -217.83063505 67.05413551 C-222.13969439 67.05283047 -226.44875374 67.05156676 -230.7578131 67.05032361 C-266.50521278 67.03995706 -302.25260587 67.02234403 -338 67 C-338 64.36 -338 61.72 -338 59 C-337.39401822 58.99864347 -336.78803644 58.99728694 -336.16369158 58.99588931 C-300.23945874 58.91521983 -264.31526629 58.82425726 -228.39109412 58.71994839 C-224.07656622 58.70742968 -219.76203807 58.69499688 -215.44750977 58.68261719 C-214.58857351 58.68015119 -213.72963724 58.6776852 -212.84467261 58.67514448 C-198.94126486 58.6354328 -185.037849 58.60267841 -171.13441766 58.57250018 C-156.86568326 58.54137399 -142.59698326 58.50275957 -128.32828754 58.45720994 C-119.5254478 58.42934437 -110.72263319 58.40730295 -101.91976123 58.39273749 C-95.88134986 58.38218637 -89.84298719 58.36435435 -83.80461252 58.34083296 C-80.32205059 58.32748116 -76.83955683 58.31730507 -73.35696793 58.31578636 C-69.57651203 58.31245991 -65.79629214 58.29697139 -62.0158844 58.2784729 C-60.3743181 58.281375 -60.3743181 58.281375 -58.69958884 58.28433573 C-41.88603312 58.16141253 -28.58866597 52.29799765 -16.3125 40.8125 C-5.4369595 29.47580584 -0.54897751 15.48116576 0 0 Z " fill="#CA9A5D" transform="translate(348,288)"/>
<path d="M0 0 C92.07 0 184.14 0 279 0 C279 2.64 279 5.28 279 8 C186.93 8 94.86 8 0 8 C0 5.36 0 2.72 0 0 Z " fill="#CB9A5E" transform="translate(10,332)"/>
<path d="M0 0 C92.07 0 184.14 0 279 0 C279 2.31 279 4.62 279 7 C186.93 7 94.86 7 0 7 C0 4.69 0 2.38 0 0 Z " fill="#C79352" transform="translate(103,50)"/>
<path d="M0 0 C3.20916732 0.58045924 4.83436488 1.46376442 7.11621094 3.77563477 C7.69651062 4.35616104 8.2768103 4.93668732 8.87469482 5.5348053 C9.48838928 6.16398361 10.10208374 6.79316193 10.734375 7.44140625 C11.37240051 8.08367661 12.01042603 8.72594696 12.66778564 9.38768005 C14.70234118 11.43901726 16.72621379 13.50054273 18.75 15.5625 C20.12821491 16.95576234 21.50711325 18.34834898 22.88671875 19.74023438 C26.26579046 23.15236865 29.63531864 26.57367707 33 30 C29.16439367 34.58664344 25.19361444 38.94654556 20.9453125 43.15234375 C20.39890106 43.69734024 19.85248962 44.24233673 19.28952026 44.80384827 C17.57037942 46.51746118 15.84776796 48.22753444 14.125 49.9375 C12.94768362 51.10979204 11.77059826 52.28231614 10.59375 53.45507812 C7.73182511 56.30606982 4.86678543 59.15389615 2 62 C0.35 60.68 -1.3 59.36 -3 58 C-1.4152642 54.13671373 1.05956887 51.71123077 4.0078125 48.796875 C4.49329559 48.3142218 4.97877869 47.8315686 5.47897339 47.33428955 C7.02299866 45.80141438 8.57384824 44.27565996 10.125 42.75 C11.17624009 41.70879639 12.22702657 40.66713459 13.27734375 39.625 C15.84633004 37.07800536 18.42148161 34.53734823 21 32 C19.41568547 28.09148801 16.73364905 25.47632644 13.7734375 22.578125 C13.01191879 21.82085114 13.01191879 21.82085114 12.23501587 21.04827881 C10.61966158 19.44407904 8.99747791 17.84699144 7.375 16.25 C6.27558302 15.16061893 5.17661941 14.0707801 4.078125 12.98046875 C1.3906398 10.31498115 -1.30299021 7.65584857 -4 5 C-2.68 3.35 -1.36 1.7 0 0 Z " fill="#C89657" transform="translate(156,164)"/>
<path d="M0 0 C3.16115776 1.36983503 3.9927092 1.9890638 6 5 C-2.25 13.25 -10.5 21.5 -19 30 C-17.05301041 33.89397919 -15.32724127 35.91783861 -12.28125 38.94921875 C-11.34925781 39.87927734 -10.41726562 40.80933594 -9.45703125 41.76757812 C-8.97186035 42.24654541 -8.48668945 42.7255127 -7.98681641 43.21899414 C-6.49971045 44.68778598 -5.02082042 46.16448104 -3.54296875 47.64257812 C0.82385266 52.35553674 0.82385266 52.35553674 6 56 C4.48601545 59.78496138 3.9855604 60.0072198 0 62 C-9.9 52.1 -19.8 42.2 -30 32 C-28.4011444 28.80228881 -27.58401307 27.33550845 -25.20263672 24.97558594 C-24.64220673 24.41530701 -24.08177673 23.85502808 -23.50436401 23.277771 C-22.90222076 22.68595032 -22.30007751 22.09412964 -21.6796875 21.484375 C-21.06102814 20.86854553 -20.44236877 20.25271606 -19.80496216 19.6182251 C-17.83296186 17.65739664 -15.85411263 15.70364699 -13.875 13.75 C-12.53469836 12.41973201 -11.19484917 11.089008 -9.85546875 9.7578125 C-6.57553411 6.4998985 -3.28944058 3.24831467 0 0 Z " fill="#C79453" transform="translate(231,164)"/>
</svg>
